<svg xmlns="http://www.w3.org/2000/svg" viewBox="0 0 69.24 23.36"><defs><style>.cls-1,.cls-3{fill:#e70000;}.cls-2,.cls-4{fill:#fff;}.cls-2,.cls-3{fill-rule:evenodd;}</style></defs><g id="Layer_2" data-name="Layer 2"><g id="Layer_1-2" data-name="Layer 1"><path class="cls-1" d="M0,19.63,6,9.69H8.58l2.77,9.94H8.8l-.49-2.14H3.93L2.69,19.63Zm7.86-3.77-.55-2.35-.14-.87-.12-1.23c0,.18-.11.36-.17.52s-.12.32-.19.47-.13.31-.2.46l-.22.43-1.4,2.57Z"/><path class="cls-1" d="M13.26,19.63l1.52-9.94h2.51l3.56,5.12.48.74c.11.16.22.34.33.53a7.61,7.61,0,0,1,.4.81,5.82,5.82,0,0,1,0-.6c0-.19,0-.4.06-.64l.09-.86L23,9.69h2.27l-1.53,9.94H21.43l-4-5.79c-.25-.35-.44-.66-.59-.92a6.31,6.31,0,0,1-.4-.77v.32c0,.11,0,.3,0,.57s0,.4,0,.41a3.82,3.82,0,0,1,0,.57c0,.15,0,.26-.05.33l-.86,5.28Z"/><path class="cls-1" d="M27,19.63l1.51-9.94h2.42c.67,0,1.25,0,1.73,0a10.16,10.16,0,0,1,1.16.08,4.81,4.81,0,0,1,1.42.37A4.08,4.08,0,0,1,37,11.8a5,5,0,0,1,.65,2.57,5,5,0,0,1-.58,2.5,5,5,0,0,1-1.81,1.8,5.69,5.69,0,0,1-1.92.73,18.55,18.55,0,0,1-3.4.23H27Zm2.67-1.78h.14l1.18,0a8.06,8.06,0,0,0,2-.19,2.79,2.79,0,0,0,1.21-.62,3.23,3.23,0,0,0,.81-1.19,4.37,4.37,0,0,0,.28-1.62,2.78,2.78,0,0,0-.71-2.12,3.53,3.53,0,0,0-2.38-.65H30.59Z"/><path class="cls-1" d="M39.54,19.63l1.51-9.94h2.42L42,19.63Z"/><path class="cls-2" d="M69.24,10.06C64.15,6.59,54.41,4.68,45,5.21,41.26,3,38.18.88,34.89.35,26.63-1,21.7,1.76,12.62,3.39,9.4,4,4.16,5.21,1,5.14c.11,1,1.1,2.82.55,3.17C-1.12,10.07.4,11.36.68,15c.47-2.86.71-3.69,2.8-5.38,1-.77,4-.65,4.62-1.54-2.88-.47-4.8.31-4.5-1.36,6.56,0,11.52.08,20.71.8A30.41,30.41,0,0,1,16.55,4C22.72,2.5,27.69.73,34,1.62c3,.43,5.82,2.15,8.45,3.82-.63.18-.82.24-1.62.44a6.55,6.55,0,0,0-1.42-.81c-.83-.28-2.69-.28-2.92.21s1.28.72,1.67.84.77-.18,1,0l.24.12c-2.48.56-5.34,1.09-7.18,1.47C43.58,7.45,51,4.78,62,7.72a15.29,15.29,0,0,0-4.34.13,9.68,9.68,0,0,0,3.89,1.2C64.37,9.32,65.42,8.63,69.24,10.06Z"/><polygon class="cls-3" points="44.27 12.39 69.24 11.89 44.27 11.41 44.27 12.39"/><polygon class="cls-2" points="44.27 14.98 63.98 14.48 44.27 14 44.27 14.98"/><path class="cls-4" d="M1.48,22.32l-.34-.87-.36.87Zm-.83.32-.28.67H0L1,21h.35l1,2.3h-.4l-.27-.67Z"/><path class="cls-4" d="M7.19,21h.36v1.46a1.4,1.4,0,0,0,0,.23.44.44,0,0,0,.06.16.26.26,0,0,0,.13.12A.54.54,0,0,0,8,23a.36.36,0,0,0,.34-.15.87.87,0,0,0,.08-.41V21h.36v1.46a1.9,1.9,0,0,1,0,.37.59.59,0,0,1-.14.27.7.7,0,0,1-.27.19,1,1,0,0,1-.73,0,.71.71,0,0,1-.29-.23.51.51,0,0,1-.09-.18.57.57,0,0,1,0-.18,1.41,1.41,0,0,1,0-.22Z"/><polygon class="cls-4" points="14.62 23.31 14.26 23.31 14.26 21.32 13.8 21.32 13.8 21.01 15.09 21.01 15.09 21.32 14.62 21.32 14.62 23.31"/><path class="cls-4" d="M20.39,22.15a.82.82,0,0,0,.12.43.92.92,0,0,0,.32.33.9.9,0,0,0,.46.12,1,1,0,0,0,.35-.07.94.94,0,0,0,.29-.2.92.92,0,0,0,.19-.28.87.87,0,0,0,.06-.32.81.81,0,0,0-.06-.31.73.73,0,0,0-.17-.26.82.82,0,0,0-.25-.2.9.9,0,0,0-.32-.09h-.09a1,1,0,0,0-.45.11,1,1,0,0,0-.32.31A.94.94,0,0,0,20.39,22.15Zm-.37,0a1.08,1.08,0,0,1,.11-.47,1.26,1.26,0,0,1,.27-.38,1.55,1.55,0,0,1,.41-.25A1.62,1.62,0,0,1,21.3,21a.9.9,0,0,1,.24,0,1.1,1.1,0,0,1,.53.23,1,1,0,0,1,.36.42,1.24,1.24,0,0,1,.12.53v.1a1.18,1.18,0,0,1-.2.55,1.16,1.16,0,0,1-.46.39,1.28,1.28,0,0,1-.61.15,1.3,1.3,0,0,1-.64-.17,1.19,1.19,0,0,1-.45-.44A1.13,1.13,0,0,1,20,22.15Z"/><path class="cls-4" d="M33.74,22.65h.33a.44.44,0,0,0,.13.29.4.4,0,0,0,.27.11.4.4,0,0,0,.31-.14.45.45,0,0,0,.08-.26.49.49,0,0,0,0-.13.24.24,0,0,0-.1-.14.42.42,0,0,0-.14-.09l-.19-.05-.17,0a.62.62,0,0,1-.32-.22.66.66,0,0,1-.11-.36.61.61,0,0,1,.2-.47.71.71,0,0,1,.22-.13.81.81,0,0,1,.27-.05.76.76,0,0,1,.27.05.62.62,0,0,1,.37.57h-.33a.49.49,0,0,0-.06-.17.36.36,0,0,0-.28-.14.3.3,0,0,0-.24.11.34.34,0,0,0-.08.23.21.21,0,0,0,.07.18.34.34,0,0,0,.19.11l.29.09a.84.84,0,0,1,.27.13.62.62,0,0,1,.17.22.64.64,0,0,1,.06.28.75.75,0,0,1-.13.43.69.69,0,0,1-.36.27.82.82,0,0,1-.26,0,.69.69,0,0,1-.5-.2A.71.71,0,0,1,33.74,22.65Z"/><path class="cls-4" d="M41.5,22.32l-.35-.87-.35.87Zm-.83.32-.28.67H40L41,21h.35l1,2.3h-.4l-.27-.67Z"/><polygon class="cls-4" points="48.41 23.31 47.24 23.31 47.24 21.01 47.59 21.01 47.59 23 48.41 23 48.41 23.31"/><polygon class="cls-4" points="54.68 23.31 53.51 23.31 53.51 21.01 53.86 21.01 53.86 23 54.68 23 54.68 23.31"/><path class="cls-4" d="M60,22.15a.82.82,0,0,0,.12.43.92.92,0,0,0,.32.33.89.89,0,0,0,.45.12,1,1,0,0,0,.36-.07.9.9,0,0,0,.28-.2.67.67,0,0,0,.19-.28.71.71,0,0,0,.07-.32.81.81,0,0,0-.06-.31.73.73,0,0,0-.17-.26.86.86,0,0,0-.26-.2A.85.85,0,0,0,61,21.3h-.09a1,1,0,0,0-.45.11,1,1,0,0,0-.32.31A.94.94,0,0,0,60,22.15Zm-.37,0a1.24,1.24,0,0,1,.1-.47A1.29,1.29,0,0,1,60,21.3a1.41,1.41,0,0,1,.41-.25,1.62,1.62,0,0,1,.49-.08,1,1,0,0,1,.24,0,1.1,1.1,0,0,1,.53.23,1.22,1.22,0,0,1,.36.42,1.24,1.24,0,0,1,.12.53v.1a1.2,1.2,0,0,1-.67.94,1.28,1.28,0,0,1-1.24,0,1.29,1.29,0,0,1-.46-.44A1.12,1.12,0,0,1,59.66,22.15Z"/><polygon class="cls-4" points="67.67 23.31 67.32 23.31 67.32 21.01 67.69 21.01 68.9 22.75 68.88 21.01 69.24 21.01 69.24 23.31 68.9 23.31 67.65 21.52 67.67 23.31"/></g></g></svg>